<svg viewBox="0 0 128 128" xmlns="http://www.w3.org/2000/svg">
  <!-- Background circle -->
  <circle cx="64" cy="64" r="60" fill="#4285f4" />
  <circle cx="64" cy="64" r="56" fill="#ffffff" />
  <circle cx="64" cy="64" r="52" fill="#f5f5f5" />
  
  <!-- Webpage outline with AI chat bubble -->
  <g>
    <!-- Browser window -->
    <rect x="32" y="32" width="64" height="50" rx="4" ry="4" fill="#ffffff" stroke="#4285f4" stroke-width="3" />
    
    <!-- Browser header -->
    <rect x="32" y="32" width="64" height="10" rx="4" ry="4" fill="#4285f4" />
    
    <!-- Browser controls -->
    <circle cx="38" cy="37" r="2" fill="#ffffff" />
    <circle cx="45" cy="37" r="2" fill="#ffffff" />
    <circle cx="52" cy="37" r="2" fill="#ffffff" />
    
    <!-- Content lines -->
    <rect x="38" y="48" width="52" height="3" rx="1.5" ry="1.5" fill="#e0e0e0" />
    <rect x="38" y="55" width="40" height="3" rx="1.5" ry="1.5" fill="#e0e0e0" />
    <rect x="38" y="62" width="45" height="3" rx="1.5" ry="1.5" fill="#e0e0e0" />
    <rect x="38" y="69" width="35" height="3" rx="1.5" ry="1.5" fill="#e0e0e0" />
  </g>
  
  <!-- AI chat panel -->
  <g>
    <!-- Chat bubble -->
    <rect x="50" y="60" width="48" height="36" rx="6" ry="6" fill="#4285f4" />
    
    <!-- AI icon in chat -->
    <circle cx="62" cy="72" r="6" fill="#ffffff" />
    <path d="M62,66 Q70,70 62,78 Q54,70 62,66" fill="#4285f4" />
    
    <!-- Chat lines -->
    <rect x="74" y="69" width="18" height="2" rx="1" ry="1" fill="#ffffff" />
    <rect x="74" y="73" width="14" height="2" rx="1" ry="1" fill="#ffffff" />
    <rect x="70" y="82" width="22" height="2" rx="1" ry="1" fill="#ffffff" />
    <rect x="70" y="86" width="18" height="2" rx="1" ry="1" fill="#ffffff" />
  </g>
  
  <!-- Connection dots between web page and AI -->
  <circle cx="58" cy="58" r="2" fill="#4285f4" />
  <circle cx="64" cy="55" r="2" fill="#4285f4" />
  <circle cx="70" cy="58" r="2" fill="#4285f4" />
  
  <!-- Highlight effect -->
  <rect x="38" y="55" width="40" height="3" rx="1.5" ry="1.5" fill="#FFEB3B" opacity="0.7" />
</svg>